<svg width="48" height="36" viewBox="0 0 48 36" fill="none" xmlns="http://www.w3.org/2000/svg">
<rect width="48" height="36" rx="18" fill="#15B742"/>
<path fill-rule="evenodd" clip-rule="evenodd" d="M17.9998 15.0005C17.3601 15.0005 16.8855 15.5928 17.0242 16.2173L18.4051 22.4346C18.6092 23.3496 19.4207 24.0005 20.3582 24.0005H27.1492C27.616 24.0005 28.0516 23.8389 28.3963 23.564C28.7439 23.2866 28.9998 22.894 29.1014 22.4346L30.4832 16.2173C30.6219 15.5928 30.1463 15.0005 29.5066 15.0005H26.2889C25.9549 15.0005 25.6424 15.1675 25.4568 15.4458L25.4178 15.5044C24.6258 16.6919 22.8807 16.6919 22.0896 15.5044L22.0506 15.4458C21.865 15.1675 21.5525 15.0005 21.2185 15.0005H17.9998ZM21.2781 18.7671C21.2781 18.3438 20.9373 18.0005 20.5164 18.0005C20.0945 18.0005 19.7537 18.3438 19.7537 18.7671V21.2339C19.7537 21.6572 20.0945 22.0005 20.5164 22.0005C20.9373 22.0005 21.2781 21.6572 21.2781 21.2339V18.7671ZM24.5281 18.7671C24.5281 18.3438 24.1863 18.0005 23.7654 18.0005C23.3445 18.0005 23.0037 18.3438 23.0037 18.7671V21.2339C23.0037 21.6572 23.3445 22.0005 23.7654 22.0005C24.1863 22.0005 24.5281 21.6572 24.5281 21.2339V18.7671ZM26.991 18.0005C27.4129 18.0005 27.7537 18.3438 27.7537 18.7671V21.2339C27.7537 21.6572 27.4129 22.0005 26.991 22.0005C26.5701 22.0005 26.2293 21.6572 26.2293 21.2339V18.7671C26.2293 18.3438 26.5701 18.0005 26.991 18.0005Z" fill="white"/>
<path fill-rule="evenodd" clip-rule="evenodd" d="M25.1256 11.0718C25.6383 11.2769 25.8878 11.8589 25.6826 12.3717L24.6826 14.8717C24.4775 15.3844 23.8956 15.6339 23.3828 15.4287C22.87 15.2236 22.6206 14.6417 22.8257 14.1289L23.8257 11.6289C24.0308 11.1161 24.6128 10.8667 25.1256 11.0718Z" fill="white"/>
</svg>
